<svg xmlns="http://www.w3.org/2000/svg" viewBox="0 0 2000 1080"><defs><style>.a{fill:#fff;opacity:0;}.b{fill:#32373c;}</style></defs><title>Wordpresslogo</title><rect class="a" width="2000" height="1080"/><path class="b" d="M922.085,715.407H840.131V724.1c25.637,0,29.757,5.494,29.757,38v58.606c0,32.5-4.12,38.458-29.757,38.458-19.682-2.747-32.963-13.28-51.278-33.423L767.8,802.856c28.383-5.04,43.491-22.895,43.491-43.043,0-25.177-21.515-44.406-61.806-44.406H668.9V724.1c25.637,0,29.757,5.494,29.757,38v58.606c0,32.5-4.12,38.458-29.757,38.458v8.7H760.01v-8.7c-25.637,0-29.757-5.953-29.757-38.458V804.229h7.781l50.819,63.636H922.085c65.473,0,93.856-34.792,93.856-76.462S987.558,715.407,922.085,715.407ZM730.253,790.03V729.141h18.77c20.6,0,29.761,14.19,29.761,30.672,0,16.027-9.159,30.217-29.761,30.217Zm193.206,63.645h-3.206c-16.482,0-18.77-4.12-18.77-25.183V729.141h21.976c47.612,0,56.313,34.792,56.313,61.808C979.772,818.878,971.071,853.675,923.459,853.675Z"/><path class="b" d="M413.894,806.976l31.59-93.408c9.16-27.01,5.04-34.791-24.263-34.791v-9.161H507.3v9.161c-28.843,0-35.71,6.867-47.158,40.29l-52.2,156.584h-5.948l-46.7-143.308L307.677,875.651h-5.954L250.905,719.067c-10.988-33.423-18.315-40.29-44.87-40.29v-9.161H307.677v9.161c-27.016,0-34.342,6.408-24.722,34.791l30.67,93.408,46.244-137.36h8.7Z"/><path class="b" d="M569.551,873.818c-50.358,0-91.568-37.084-91.568-82.415,0-44.865,41.21-81.955,91.568-81.955s91.569,37.09,91.569,81.955C661.12,836.734,619.916,873.818,569.551,873.818Zm0-150.17c-42.118,0-56.772,38-56.772,67.755,0,30.222,14.654,67.766,56.772,67.766,42.583,0,57.232-37.544,57.232-67.766C626.783,761.646,612.134,723.648,569.551,723.648Z"/><path class="b" d="M1129.021,858.71v9.155H1024.177V858.71c30.676,0,36.17-7.782,36.17-53.572v-73.25c0-45.79-5.494-53.111-36.17-53.111v-9.161h94.77c47.158,0,73.259,24.269,73.259,56.779,0,31.59-26.1,56.313-73.259,56.313h-26.1v22.43C1092.851,850.928,1098.345,858.71,1129.021,858.71ZM1118.947,686.1h-26.1v79.668h26.1c25.642,0,37.543-17.855,37.543-39.371C1156.49,704.419,1144.589,686.1,1118.947,686.1Z"/><path class="b" d="M1506.732,824.832l-2.288,8.241c-4.12,15.108-9.159,20.6-41.663,20.6h-6.413c-23.8,0-27.924-5.494-27.924-38V794.615c35.71,0,38.457,3.2,38.457,27.01h8.7v-68.22h-8.7c0,23.809-2.747,27.01-38.457,27.01V729.141h25.177c32.509,0,37.543,5.5,41.664,20.6l2.292,8.695h7.322l-3.2-43.032H1367.092V724.1c25.636,0,29.757,5.494,29.757,38v58.606c0,29.736-3.5,37.227-23.714,38.295-19.213-2.932-32.4-13.413-50.449-33.26l-21.062-22.89c28.39-5.04,43.5-22.895,43.5-43.043,0-25.177-21.515-44.406-61.806-44.406h-80.581V724.1c25.637,0,29.757,5.494,29.757,38v58.606c0,32.5-4.12,38.458-29.757,38.458v8.7h91.109v-8.7c-25.636,0-29.756-5.953-29.756-38.458V804.229h7.78l50.819,63.636h188.166l2.747-43.033Zm-242.645-34.8V729.141h18.769c20.6,0,29.761,14.19,29.761,30.672,0,16.027-9.159,30.217-29.761,30.217Z"/><path class="b" d="M1599.674,873.818c-18.315,0-34.342-9.615-41.209-15.568-2.288,2.292-6.408,9.16-7.322,15.568h-8.7V810.637h9.154c3.666,30.217,24.723,48.073,51.738,48.073,14.649,0,26.556-8.242,26.556-21.976,0-11.9-10.534-21.062-29.3-29.758l-26.1-12.361c-18.315-8.706-32.049-23.814-32.049-43.957,0-21.976,20.6-40.746,48.99-40.746,15.109,0,27.924,5.5,35.711,11.9,2.287-1.832,4.575-6.872,5.953-12.366h8.695v54.031h-9.614c-3.206-21.522-15.108-39.377-39.371-39.377-12.821,0-24.728,7.327-24.728,18.775,0,11.9,9.614,18.309,31.6,28.383l25.177,12.362c21.981,10.528,30.676,27.475,30.676,41.21C1655.527,853.675,1630.345,873.818,1599.674,873.818Z"/><path class="b" d="M1738.112,873.818c-18.314,0-34.342-9.615-41.209-15.568-2.288,2.292-6.408,9.16-7.322,15.568h-8.7V810.637h9.154c3.667,30.217,24.723,48.073,51.738,48.073,14.649,0,26.556-8.242,26.556-21.976,0-11.9-10.534-21.062-29.3-29.758l-26.1-12.361c-18.315-8.706-32.049-23.814-32.049-43.957,0-21.976,20.6-40.746,48.991-40.746,15.108,0,27.923,5.5,35.71,11.9,2.287-1.832,4.575-6.872,5.948-12.366h8.7v54.031h-9.615c-3.206-21.522-15.108-39.377-39.371-39.377-12.821,0-24.728,7.327-24.728,18.775,0,11.9,9.614,18.309,31.6,28.383l25.177,12.362c21.981,10.528,30.676,27.475,30.676,41.21C1793.965,853.675,1768.783,873.818,1738.112,873.818Z"/><path class="b" d="M1000,218.392a192.714,192.714,0,0,1,108.274,33.069,194.265,194.265,0,0,1,70.182,85.222A193.4,193.4,0,0,1,1160.6,520.34a194.267,194.267,0,0,1-85.221,70.183,193.4,193.4,0,0,1-183.655-17.854,194.279,194.279,0,0,1-70.182-85.222A193.407,193.407,0,0,1,839.4,303.789a194.272,194.272,0,0,1,85.221-70.182A192.452,192.452,0,0,1,1000,218.392m0-12.362c-113.788,0-206.032,92.245-206.032,206.035S886.212,618.1,1000,618.1s206.032-92.245,206.032-206.035S1113.788,206.03,1000,206.03Z"/><path class="b" d="M828.307,412.059a171.7,171.7,0,0,0,96.769,154.518l-81.9-224.392A171.035,171.035,0,0,0,828.307,412.059Zm287.6-8.66c0-21.226-7.624-35.917-14.154-47.35-8.7-14.149-16.865-26.12-16.865-40.269,0-15.78,11.966-30.471,28.832-30.471.762,0,1.483.091,2.223.139a171.652,171.652,0,0,0-259.4,32.306c4.032.128,7.83.209,11.05.209,17.955,0,45.761-2.183,45.761-2.183,9.25-.542,10.344,13.056,1.1,14.149,0,0-9.3,1.09-19.649,1.632l62.52,185.977L994.9,404.851l-26.748-73.29c-9.25-.542-18.008-1.632-18.008-1.632-9.255-.546-8.171-14.691,1.089-14.149,0,0,28.348,2.183,45.218,2.183,17.954,0,45.765-2.183,45.765-2.183,9.255-.542,10.344,13.056,1.093,14.149,0,0-9.313,1.09-19.648,1.632l62.048,184.56L1103.425,460C1111.294,435.469,1115.907,418.091,1115.907,403.4Zm-112.891,23.678L951.494,576.764a171.77,171.77,0,0,0,105.525-2.738,15.719,15.719,0,0,1-1.232-2.366Zm147.651-97.385a131.894,131.894,0,0,1,1.154,17.654c0,17.416-3.263,37-13.06,61.494l-52.439,151.62a171.723,171.723,0,0,0,64.345-230.768Z"/></svg>